<svg width="16" height="16" viewBox="0 0 16 16" fill="none" xmlns="http://www.w3.org/2000/svg">
<path fill-rule="evenodd" clip-rule="evenodd" d="M15.4391 15.5325H12.3039V10.6273C12.3039 9.45693 12.2842 7.95277 10.6751 7.95277C9.0441 7.95277 8.79492 9.22738 8.79492 10.5428V15.5325H5.66276V5.44432H8.66806V6.82389H8.71186C9.12943 6.03103 10.1526 5.19438 11.6779 5.19438C14.8523 5.19438 15.4383 7.28299 15.4383 9.99985L15.4391 15.5325ZM2.12812 4.06701C1.88919 4.06721 1.65256 4.0203 1.43177 3.92895C1.21099 3.83761 1.01038 3.70362 0.841424 3.53467C0.672471 3.36572 0.538489 3.16511 0.447144 2.94432C0.355799 2.72354 0.308884 2.48691 0.309083 2.24797C0.309083 1.88841 0.415685 1.53693 0.615415 1.23794C0.815144 0.938962 1.09903 0.705907 1.43119 0.568241C1.76335 0.430575 2.12887 0.394479 2.48154 0.464516C2.83421 0.534552 3.1582 0.707577 3.41256 0.961718C3.66691 1.21586 3.8402 1.53971 3.91053 1.89232C3.98086 2.24493 3.94507 2.61048 3.80768 2.94275C3.67029 3.27503 3.43747 3.55911 3.13865 3.75909C2.83983 3.95907 2.48844 4.06596 2.12888 4.06626L2.12812 4.06701ZM3.69647 15.5325H0.558266V5.44432H3.69647V15.5325Z" fill="#F9F9F9"/>
</svg>
