<svg width="18" height="15" viewBox="0 0 18 15" fill="none" xmlns="http://www.w3.org/2000/svg">
<path d="M17.4101 2.53964C16.7768 2.82029 16.0964 3.00991 15.3812 3.09562C16.1192 2.65402 16.6713 1.95899 16.9346 1.14022C16.2412 1.55208 15.4823 1.84198 14.6909 1.99732C14.1588 1.42911 13.4539 1.05248 12.6857 0.925927C11.9176 0.799371 11.1291 0.92996 10.4428 1.29742C9.75645 1.66488 9.21063 2.24866 8.89007 2.95811C8.56952 3.66756 8.49215 4.463 8.66999 5.22092C7.26502 5.15038 5.89059 4.78521 4.63588 4.1491C3.38118 3.51299 2.27424 2.62017 1.38692 1.52857C1.08353 2.05193 0.909073 2.65873 0.909073 3.30497C0.908734 3.88673 1.052 4.45958 1.32615 4.97269C1.60031 5.48581 1.99688 5.92332 2.48067 6.24641C1.9196 6.22856 1.3709 6.07695 0.88025 5.80421V5.84972C0.880194 6.66566 1.16244 7.4565 1.67908 8.08803C2.19573 8.71957 2.91497 9.15291 3.71475 9.31452C3.19425 9.45539 2.64856 9.47614 2.11887 9.3752C2.34452 10.0773 2.78407 10.6912 3.37598 11.1311C3.96789 11.5709 4.68252 11.8147 5.41984 11.8282C4.1682 12.8107 2.62243 13.3437 1.03119 13.3414C0.749319 13.3414 0.467687 13.325 0.187744 13.2921C1.80294 14.3306 3.68315 14.8817 5.6034 14.8796C12.1037 14.8796 15.6573 9.4958 15.6573 4.82651C15.6573 4.67481 15.6535 4.52159 15.6466 4.36989C16.3378 3.87003 16.9345 3.25103 17.4086 2.54192L17.4101 2.53964Z" fill="#F9F9F9"/>
</svg>
