<?xml version="1.0" encoding="UTF-8"?>
<svg version="1.1" xmlns="http://www.w3.org/2000/svg" width="24" height="23">
<path d="M0 0 C3.11929285 1.81035101 3.83938738 2.51816215 5 6 C5.13156527 9.68382769 5.16982138 12.49053585 4 16 C3.34 16 2.68 16 2 16 C2 16.66 2 17.32 2 18 C-0.57474755 19.67860165 -3.06383892 21.06413079 -6 22 C-10.02813271 20.99296682 -12.29112853 19.59981432 -15.4375 16.9375 C-17.73039064 12.6268656 -17.87774417 8.7752504 -17 4 C-13.29893988 -1.55159018 -6.04466525 -0.92291313 0 0 Z M-11 3 C-11.33 3.66 -11.66 4.32 -12 5 C-10.72533094 7.75060165 -9.7543256 9.54740464 -7.125 11.125 C-4.65409355 11.19936255 -4.65409355 11.19936255 -2.25 8.5625 C-1.5075 7.716875 -0.765 6.87125 0 6 C-0.33 5.01 -0.66 4.02 -1 3 C-4.3 3 -7.6 3 -11 3 Z " fill="#0A0A0A" transform="translate(18,0)"/>
<path d="M0 0 C1.59134766 -0.02513672 1.59134766 -0.02513672 3.21484375 -0.05078125 C6.0625 0.3125 6.0625 0.3125 7.94140625 1.83203125 C8.49634766 2.56486328 8.49634766 2.56486328 9.0625 3.3125 C8.22080961 7.29140004 7.54059859 9.79563666 4.75 12.8125 C2.0625 14.3125 2.0625 14.3125 -0.4375 14.375 C-3.85906702 12.92083402 -5.65726953 11.24422489 -7.9375 8.3125 C-8.375 5.125 -8.375 5.125 -7.9375 2.3125 C-5.24648766 -0.37851234 -3.74674054 0.01362451 0 0 Z M-4.9375 3.3125 C-5.2675 3.9725 -5.5975 4.6325 -5.9375 5.3125 C-4.66283094 8.06310165 -3.6918256 9.85990464 -1.0625 11.4375 C1.40840645 11.51186255 1.40840645 11.51186255 3.8125 8.875 C4.555 8.029375 5.2975 7.18375 6.0625 6.3125 C5.7325 5.3225 5.4025 4.3325 5.0625 3.3125 C1.7625 3.3125 -1.5375 3.3125 -4.9375 3.3125 Z " fill="#F6F6F6" transform="translate(11.9375,-0.3125)"/>
<path d="M0 0 C1.31223496 3.93670488 0.24296256 6.12488144 -1 10 C-1.33 10 -1.66 10 -2 10 C-2.1953125 3.9453125 -2.1953125 3.9453125 -2 2 C-1.34 1.34 -0.68 0.68 0 0 Z " fill="#393939" transform="translate(3,2)"/>
</svg>
