<?xml version="1.0" encoding="UTF-8"?>
<svg version="1.1" xmlns="http://www.w3.org/2000/svg" width="16" height="15">
<path d="M0 0 C4.3 0.3 4.3 0.3 6 2 C6.14393457 6.33530918 6.04212061 10.66157731 6 15 C0.72 15 -4.56 15 -10 15 C-10 7 -10 7 -8 5 C-7.38125 4.87625 -6.7625 4.7525 -6.125 4.625 C-3.78892352 4.13756192 -3.78892352 4.13756192 -2.0625 1.875 C-1.381875 1.25625 -0.70125 0.6375 0 0 Z " fill="#040404" transform="translate(10,0)"/>
<path d="M0 0 C2.75 0.25 2.75 0.25 5 1 C4.375 2.9375 4.375 2.9375 3 5 C-0.125 5.75 -0.125 5.75 -3 6 C-3 6.66 -3 7.32 -3 8 C-0.69 8.66 1.62 9.32 4 10 C4 11.32 4 12.64 4 14 C2.68 14 1.36 14 0 14 C0 13.01 0 12.02 0 11 C-2.64 10.34 -5.28 9.68 -8 9 C-8 7.68 -8 6.36 -8 5 C-7.13375 4.87625 -7.13375 4.87625 -6.25 4.75 C-3.81163978 4.14053634 -3.81163978 4.14053634 -2.0625 1.875 C-1.0415625 0.946875 -1.0415625 0.946875 0 0 Z " fill="#EBEBEB" transform="translate(10,0)"/>
<path d="M0 0 C0 3.3 0 6.6 0 10 C-0.99 10.495 -0.99 10.495 -2 11 C-2.33 10.01 -2.66 9.02 -3 8 C-4.93618425 7.32843384 -4.93618425 7.32843384 -7 7 C-7.66 6.67 -8.32 6.34 -9 6 C-9 5.34 -9 4.68 -9 4 C-7.66666667 3.33333333 -6.33333333 2.66666667 -5 2 C-4.278125 1.62875 -3.55625 1.2575 -2.8125 0.875 C-1 0 -1 0 0 0 Z " fill="#121212" transform="translate(16,2)"/>
<path d="M0 0 C0.763125 0.20625 1.52625 0.4125 2.3125 0.625 C1.6875 2.5625 1.6875 2.5625 0.3125 4.625 C-2.75 5.25 -2.75 5.25 -5.6875 5.625 C-6.0175 6.285 -6.3475 6.945 -6.6875 7.625 C-6.375 4.75 -6.375 4.75 -5.6875 1.625 C-2.6875 -0.375 -2.6875 -0.375 0 0 Z " fill="#D0D0D0" transform="translate(12.6875,0.375)"/>
<path d="M0 0 C1.32 0 2.64 0 4 0 C4.33 1.32 4.66 2.64 5 4 C3.35 4 1.7 4 0 4 C0 2.68 0 1.36 0 0 Z " fill="#FDFDFD" transform="translate(2,5)"/>
</svg>
