<svg width="16" height="15" viewBox="0 0 16 15" fill="none" xmlns="http://www.w3.org/2000/svg">
<path d="M7.87386 4.99894C6.49668 4.99894 5.3728 6.12282 5.3728 7.5C5.3728 8.87718 6.49668 10.0011 7.87386 10.0011C9.25105 10.0011 10.3749 8.87718 10.3749 7.5C10.3749 6.12282 9.25105 4.99894 7.87386 4.99894ZM15.3752 7.5C15.3752 6.4643 15.3846 5.43798 15.3264 4.40416C15.2682 3.20335 14.9943 2.13763 14.1162 1.25953C13.2362 0.379564 12.1724 0.107505 10.9716 0.049341C9.93589 -0.00882328 8.90956 0.000558085 7.87574 0.000558085C6.84004 0.000558085 5.81372 -0.00882328 4.7799 0.049341C3.57908 0.107505 2.51336 0.38144 1.63527 1.25953C0.755297 2.1395 0.483238 3.20335 0.425073 4.40416C0.366909 5.43986 0.376291 6.46618 0.376291 7.5C0.376291 8.53382 0.366909 9.56202 0.425073 10.5958C0.483238 11.7967 0.757173 12.8624 1.63527 13.7405C2.51524 14.6204 3.57908 14.8925 4.7799 14.9507C5.8156 15.0088 6.84192 14.9994 7.87574 14.9994C8.91144 14.9994 9.93776 15.0088 10.9716 14.9507C12.1724 14.8925 13.2381 14.6186 14.1162 13.7405C14.9962 12.8605 15.2682 11.7967 15.3264 10.5958C15.3864 9.56202 15.3752 8.5357 15.3752 7.5ZM7.87386 11.3482C5.7443 11.3482 4.02564 9.62956 4.02564 7.5C4.02564 5.37044 5.7443 3.65177 7.87386 3.65177C10.0034 3.65177 11.7221 5.37044 11.7221 7.5C11.7221 9.62956 10.0034 11.3482 7.87386 11.3482ZM11.8797 4.3929C11.3825 4.3929 10.981 3.99138 10.981 3.49417C10.981 2.99696 11.3825 2.59544 11.8797 2.59544C12.3769 2.59544 12.7784 2.99696 12.7784 3.49417C12.7786 3.61223 12.7554 3.72917 12.7103 3.83827C12.6652 3.94738 12.599 4.04651 12.5155 4.13C12.432 4.21348 12.3329 4.27968 12.2238 4.32479C12.1147 4.3699 11.9978 4.39305 11.8797 4.3929Z" fill="white"/>
</svg>
